<svg xmlns="http://www.w3.org/2000/svg" width="200" height="60" viewBox="0 0 200 60" fill="none">
  <rect width="200" height="60" rx="8" fill="#4F46E5"/>
  <path d="M32 15C30.3431 15 29 16.3431 29 18V42C29 43.6569 30.3431 45 32 45H40C41.6569 45 43 43.6569 43 42V18C43 16.3431 41.6569 15 40 15H32Z" fill="white"/>
  <path d="M49 15C47.3431 15 46 16.3431 46 18V42C46 43.6569 47.3431 45 49 45H57C58.6569 45 60 43.6569 60 42V18C60 16.3431 58.6569 15 57 15H49Z" fill="white"/>
  <path d="M66 15C64.3431 15 63 16.3431 63 18V42C63 43.6569 64.3431 45 66 45H74C75.6569 45 77 43.6569 77 42V18C77 16.3431 75.6569 15 74 15H66Z" fill="white"/>
  <path d="M83 15C81.3431 15 80 16.3431 80 18V42C80 43.6569 81.3431 45 83 45H91C92.6569 45 94 43.6569 94 42V18C94 16.3431 92.6569 15 91 15H83Z" fill="white"/>
  <path d="M100 15C98.3431 15 97 16.3431 97 18V42C97 43.6569 98.3431 45 100 45H108C109.657 45 111 43.6569 111 42V18C111 16.3431 109.657 15 108 15H100Z" fill="white"/>
  <path d="M117 15C115.343 15 114 16.3431 114 18V42C114 43.6569 115.343 45 117 45H125C126.657 45 128 43.6569 128 42V18C128 16.3431 126.657 15 125 15H117Z" fill="white"/>
  <path d="M134 15C132.343 15 131 16.3431 131 18V42C131 43.6569 132.343 45 134 45H142C143.657 45 145 43.6569 145 42V18C145 16.3431 143.657 15 142 15H134Z" fill="white"/>
  <path d="M151 15C149.343 15 148 16.3431 148 18V42C148 43.6569 149.343 45 151 45H159C160.657 45 162 43.6569 162 42V18C162 16.3431 160.657 15 159 15H151Z" fill="white"/>
  <text x="48" y="32" font-family="Arial" font-size="12" fill="white" font-weight="bold">Cadê Meu Livro</text>
</svg>
